{"title":"Its.Alive.2008.DVDRip.Swesub.Xvid","uid":8528324,"size":733915503,"categoryP":"video","categoryS":"movies","magnet":"?xt=urn:btih:22b53a801a662b8e0b0bf35600e4ff321bd4822b&amp;dn=Its.Alive.2008.DVDRip.Swesub.Xvid&amp;tr=udp%3A%2F%2Ftracker.openbittorrent.com%3A80&amp;tr=udp%3A%2F%2Fopen.demonii.com%3A1337&amp;tr=udp%3A%2F%2Ftracker.coppersurfer.tk%3A6969&amp;tr=udp%3A%2F%2Fexodus.desync.com%3A6969","seeders":1,"leechers":0,"uploader":"nordjok","files":-1,"time":1370084756,"description":"                             Swedish Hardsub\n\n &lt;a href=&quot;\nhttp://www.imdb.com/title/tt1172060/&quot; rel=&quot;nofollow&quot; target=&quot;_NEW&quot;&gt;\nhttp://www.imdb.com/title/tt1172060/&lt;/a&gt;\n\nGeneral\nComplete name                       : Its.Alive.2008.DVDRip.Swesub.Xvid.avi\nFormat                              : AVI\nFormat/Info                         : Audio Video Interleave\nFile size                           : 700 MiB\nDuration                            : 1h 20mn\n\n\nVideo\nID                                  : 0\nFormat                              : MPEG-4 Visual\nFormat profile                      : Advanced Simple@L5\nFormat settings, BVOP               : 2\nFormat settings, QPel               : No\nFormat settings, GMC                : No warppoints\nFormat settings, Matrix             : Default (H.263)\nCodec ID                            : XVID\nCodec ID/Hint                       : XviD\nDuration                            : 1h 20mn\nBit rate                            : 1 076 Kbps\nWidth                               : 688 pixels\nHeight                              : 384 pixels\nDisplay aspect ratio                : 16:9\nFrame rate                          : 25.000 fps\nColor space                         : YUV\nChroma subsampling                  : 4:2:0\nBit depth                           : 8 bits\nScan type                           : Progressive\nCompression mode                    : Lossy\nBits/(Pixel*Frame)                  : 0.163\nStream size                         : 616 MiB (88%)\nWriting library                     : XviD 73\n\nAudio\nID                                  : 1\nFormat                              : MPEG Audio\nFormat version                      : Version 1\nFormat profile                      : Layer 3\nCodec ID                            : 55\nCodec ID/Hint                       : MP3\nDuration                            : 1h 20mn\nBit rate mode                       : Variable\nBit rate                            : 134 Kbps\nMinimum bit rate                    : 32.0 Kbps\nChannel(s)                          : 2 channels\nSampling rate                       : 48.0 KHz\nCompression mode                    : Lossy\nStream size                         : 76.8 MiB (11%)\nAlignment                           : Aligned on interleaves\nInterleave, duration                : 24 ms (0.60 video frame)\nInterleave, preload duration        : 137 ms\nWriting library                     : LAME3.99r\nEncoding settings                   : -m s -V 5 -q 0 -lowpass 17 --vbr-new -b 32\n\n","torrent":{"xt":"urn:btih:22b53a801a662b8e0b0bf35600e4ff321bd4822b","amp;dn":"Its.Alive.2008.DVDRip.Swesub.Xvid","amp;tr":["udp%3A%2F%2Ftracker.openbittorrent.com%3A80","udp%3A%2F%2Fopen.demonii.com%3A1337","udp%3A%2F%2Ftracker.coppersurfer.tk%3A6969","udp%3A%2F%2Fexodus.desync.com%3A6969"],"infoHash":"22b53a801a662b8e0b0bf35600e4ff321bd4822b","infoHashBuffer":{"type":"Buffer","data":[34,181,58,128,26,102,43,142,11,11,243,86,0,228,255,50,27,212,130,43]},"announce":[],"urlList":[]}}